<svg xmlns="http://www.w3.org/2000/svg" xmlns:xlink="http://www.w3.org/1999/xlink" id="Layer_1" x="0" y="0" version="1.1" viewBox="0 0 1280 1024" xml:space="preserve" style="enable-background:new 0 0 1280 1024"><style type="text/css">.st0{fill:url(#SVGID_1_);stroke:url(#SVGID_2_);stroke-miterlimit:10}.st1{fill:#1d1d28}.st2{fill:none}.st2,.st3{stroke:#fff;stroke-width:5;stroke-miterlimit:10}.st3,.st4{fill:#fff}.st5{font-family:&apos;MyriadPro-Bold&apos;}.st6{font-size:34.4975px}.st7{fill:#fff;stroke:#fff;stroke-miterlimit:10}.st8{font-family:&apos;MyriadPro-Regular&apos;}</style><linearGradient id="SVGID_1_" x1="1069.358" x2="210.642" y1="941.358" y2="82.642" gradientUnits="userSpaceOnUse"><stop offset="0" style="stop-color:#fff"/><stop offset="0" style="stop-color:#1467bb"/><stop offset=".064" style="stop-color:#1368bc"/><stop offset=".226" style="stop-color:#2b48aa"/><stop offset=".879" style="stop-color:#8b52b4"/></linearGradient><linearGradient id="SVGID_2_" x1="206.617" x2="1073.383" y1="512" y2="512" gradientUnits="userSpaceOnUse"><stop offset="0" style="stop-color:#cce0f4"/><stop offset=".071" style="stop-color:#c3dcf2"/><stop offset=".188" style="stop-color:#a9d2ee"/><stop offset=".338" style="stop-color:#80c2e7"/><stop offset=".513" style="stop-color:#47acde"/><stop offset=".626" style="stop-color:#1e9cd7"/><stop offset=".865" style="stop-color:#0075be"/><stop offset=".994" style="stop-color:#005b97"/></linearGradient><path d="M1060.9,944.9H219.1c-6.6,0-12-5.4-12-12V91.1c0-6.6,5.4-12,12-12h841.8c6.6,0,12,5.4,12,12v841.8	C1072.9,939.5,1067.5,944.9,1060.9,944.9z" class="st0"/><circle cx="794.2" cy="227.3" r="72.1" class="st1"/><circle cx="640" cy="534.2" r="72.1" class="st1"/><circle cx="444.1" cy="740.6" r="72.1" class="st1"/><path d="M397.8,685.4c-101.3-138.5-79.5-326.5,48.7-420.3c10.1-8.2,24.8-19,43.9-29c10.8-5.6,31.2-15.3,64.8-23.2	c58.3-13.7,114.4-12.3,143.3-10.4" class="st2"/><polygon points="672.4 173.8 663.3 224.9 712.1 207.3" class="st3"/><text class="st4 st5 st6" transform="matrix(1 0 0 1 275.7557 408.4988)">w2</text><text class="st7 st8 st6" transform="matrix(1 0 0 1 841.6473 554.8992)">w1</text><circle cx="913.7" cy="793.8" r="72.1" class="st1"/><line x1="495.8" x2="590.9" y1="690.4" y2="587" class="st2"/><path d="M909,721.9c-5.6-111.7-93.7-198-197.1-192.9" class="st2"/><text class="st4 st5 st6" transform="matrix(1 0 0 1 435.9091 751.3328)">x</text><text class="st4 st5 st6" transform="matrix(1 0 0 1 632.5956 545.7869)">y</text><text class="st4 st5 st6" transform="matrix(1 0 0 1 786.077 234.7303)">z</text><text class="st4 st5 st6" transform="matrix(1 0 0 1 899.9706 803.282)">w</text></svg>